<svg width="34" height="36" viewBox="0 0 34 36" fill="none" xmlns="http://www.w3.org/2000/svg">
<circle cx="16.5" cy="18.4893" r="17.5" fill="#080808"/>
<path d="M9.9375 18.4893C9.9375 16.1678 9.9375 15.007 10.6284 14.2321C10.7389 14.1082 10.8607 13.9935 10.9924 13.8895C11.8158 13.2393 13.0491 13.2393 15.5156 13.2393H17.4844C19.951 13.2393 21.1842 13.2393 22.0076 13.8895C22.1393 13.9935 22.2611 14.1082 22.3716 14.2321C23.0625 15.007 23.0625 16.1678 23.0625 18.4893C23.0625 20.8107 23.0625 21.9715 22.3716 22.7464C22.2611 22.8704 22.1393 22.985 22.0076 23.089C21.1842 23.7393 19.951 23.7393 17.4844 23.7393H15.5156C13.0491 23.7393 11.8158 23.7393 10.9924 23.089C10.8607 22.985 10.7389 22.8704 10.6284 22.7464C9.9375 21.9715 9.9375 20.8107 9.9375 18.4893Z" stroke="#A8A8A8" stroke-width="1.31303" stroke-linecap="round" stroke-linejoin="round"/>
<path d="M15.1875 21.1143H16.1723" stroke="#A8A8A8" stroke-width="1.31303" stroke-miterlimit="10" stroke-linecap="round" stroke-linejoin="round"/>
<path d="M18.1406 21.1143H20.4384" stroke="#A8A8A8" stroke-width="1.31303" stroke-miterlimit="10" stroke-linecap="round" stroke-linejoin="round"/>
<path d="M9.9375 16.5205H23.0625" stroke="#A8A8A8" stroke-width="1.31303" stroke-linejoin="round"/>
</svg>
