<svg width="30" height="30" viewBox="0 0 30 30" fill="none" xmlns="http://www.w3.org/2000/svg">
<circle cx="15" cy="15" r="15" fill="#1D1D1D"/>
<path d="M17.7249 11.1305L18.7261 10.1292C19.2791 9.57623 20.1757 9.57623 20.7287 10.1292C21.2816 10.6822 21.2816 11.5787 20.7287 12.1317L19.7274 13.133M17.7249 11.1305L11.8436 17.0118C11.0969 17.7585 10.7236 18.1318 10.4694 18.5867C10.2152 19.0416 9.95942 20.1158 9.71484 21.143C10.7421 20.8985 11.8163 20.6427 12.2712 20.3885C12.7261 20.1343 13.0994 19.761 13.8461 19.0143L19.7274 13.133M17.7249 11.1305L19.7274 13.133" stroke="white" stroke-width="1.25" stroke-linecap="round" stroke-linejoin="round"/>
<path d="M14.7148 21.1431H19.0006" stroke="white" stroke-width="1.25" stroke-linecap="round"/>
</svg>
