<svg width="30" height="30" viewBox="0 0 30 30" fill="none" xmlns="http://www.w3.org/2000/svg">
<circle cx="15" cy="15" r="15" fill="#1D1D1D"/>
<path d="M16.5005 15.643C17.6608 16.1403 18.241 16.389 18.826 16.311C18.892 16.3021 18.9575 16.2902 19.0225 16.2753C19.5976 16.1432 20.0537 15.7069 20.9659 14.8342L21.073 14.7317C21.7646 14.0401 22.1105 13.6942 22.1945 12.9883C22.2785 12.2824 22.0982 11.9874 21.7376 11.3975C21.4173 10.8734 20.97 10.2758 20.3475 9.65327C19.7249 9.03069 19.1273 8.58342 18.6032 8.26309C18.0133 7.90255 17.7183 7.72228 17.0124 7.80626C16.3065 7.89024 15.9606 8.23608 15.269 8.92777L15.1665 9.03477C14.2939 9.94701 13.8575 10.4031 13.7254 10.9783C13.7106 11.0432 13.6987 11.1087 13.6899 11.1746C13.6119 11.7596 13.8605 12.3398 14.3578 13.5002" stroke="white" stroke-width="1.25" stroke-linecap="round" stroke-linejoin="round"/>
<path d="M14.3578 13.4995L8.64355 19.2143V21.3572H10.7864V19.9286H12.215V18.5H13.6436L16.5007 15.6429" stroke="white" stroke-width="1.25" stroke-linecap="round" stroke-linejoin="round"/>
<path d="M19.0004 11.0002L18.2861 11.7145" stroke="white" stroke-width="1.25" stroke-linecap="round" stroke-linejoin="round"/>
</svg>
