<svg xmlns="http://www.w3.org/2000/svg" width="15" height="15" viewBox="0 0 15 15" fill="none">
  <path d="M8.43749 8.4375C9.45274 8.87263 9.96043 9.09019 10.4722 9.02194C10.53 9.01419 10.5874 9.00381 10.6442 8.99075C11.1474 8.87519 11.5465 8.49338 12.3447 7.72975L12.4384 7.64013C13.0436 7.03494 13.3462 6.73231 13.4197 6.11464C13.4932 5.49696 13.3354 5.23886 13.0199 4.72266C12.7397 4.26405 12.3483 3.74121 11.8036 3.19646C11.2588 2.6517 10.7359 2.26034 10.2773 1.98005C9.76112 1.66458 9.50305 1.50684 8.88537 1.58032C8.26768 1.65381 7.96505 1.95642 7.35987 2.56165L7.27024 2.65527C6.50668 3.45348 6.12487 3.85258 6.00928 4.35588C5.99625 4.41263 5.98587 4.46994 5.97817 4.52765C5.90989 5.03951 6.12746 5.54718 6.56262 6.5625" stroke="white" stroke-width="0.9375" stroke-linecap="round" stroke-linejoin="round"/>
  <path d="M6.56249 6.56201L1.5625 11.5624V13.4374H3.4375V12.1874H4.6875V10.9374H5.9375L8.43749 8.43745" stroke="white" stroke-width="0.9375" stroke-linecap="round" stroke-linejoin="round"/>
  <path d="M10.625 4.375L10 5" stroke="white" stroke-width="0.9375" stroke-linecap="round" stroke-linejoin="round"/>
</svg>