<svg xmlns="http://www.w3.org/2000/svg" width="15" height="15" viewBox="0 0 15 15" fill="none">
  <path d="M1.875 3.75C1.875 2.86612 1.875 2.42418 2.14959 2.14959C2.42418 1.875 2.86612 1.875 3.75 1.875C4.63388 1.875 5.07583 1.875 5.35041 2.14959C5.625 2.42418 5.625 2.86612 5.625 3.75C5.625 4.63388 5.625 5.07583 5.35041 5.35041C5.07583 5.625 4.63388 5.625 3.75 5.625C2.86612 5.625 2.42418 5.625 2.14959 5.35041C1.875 5.07583 1.875 4.63388 1.875 3.75Z" stroke="white" stroke-width="0.9375"/>
  <path d="M1.875 11.25C1.875 10.3661 1.875 9.92419 2.14959 9.64956C2.42418 9.375 2.86612 9.375 3.75 9.375C4.63388 9.375 5.07583 9.375 5.35041 9.64956C5.625 9.92419 5.625 10.3661 5.625 11.25C5.625 12.1339 5.625 12.5758 5.35041 12.8504C5.07583 13.125 4.63388 13.125 3.75 13.125C2.86612 13.125 2.42418 13.125 2.14959 12.8504C1.875 12.5758 1.875 12.1339 1.875 11.25Z" stroke="white" stroke-width="0.9375"/>
  <path d="M1.875 7.5H5.625" stroke="white" stroke-width="0.9375" stroke-linecap="round" stroke-linejoin="round"/>
  <path d="M7.5 1.875V5" stroke="white" stroke-width="0.9375" stroke-linecap="round" stroke-linejoin="round"/>
  <path d="M9.375 3.75C9.375 2.86612 9.375 2.42418 9.64956 2.14959C9.92419 1.875 10.3661 1.875 11.25 1.875C12.1339 1.875 12.5758 1.875 12.8504 2.14959C13.125 2.42418 13.125 2.86612 13.125 3.75C13.125 4.63388 13.125 5.07583 12.8504 5.35041C12.5758 5.625 12.1339 5.625 11.25 5.625C10.3661 5.625 9.92419 5.625 9.64956 5.35041C9.375 5.07583 9.375 4.63388 9.375 3.75Z" stroke="white" stroke-width="0.9375"/>
  <path d="M13.125 7.5H9.375C8.49113 7.5 8.04919 7.5 7.77456 7.77456C7.5 8.04919 7.5 8.49113 7.5 9.375M7.5 11.1057V12.8366M9.375 9.375V10.3125C9.375 11.2165 9.86481 11.25 10.625 11.25C10.9702 11.25 11.25 11.5298 11.25 11.875M10 13.125H9.375M11.25 9.375C12.1339 9.375 12.5758 9.375 12.8504 9.65C13.125 9.92494 13.125 10.3676 13.125 11.2527C13.125 12.1379 13.125 12.5804 12.8504 12.8554C12.65 13.0561 12.3604 13.1104 11.875 13.125" stroke="white" stroke-width="0.9375" stroke-linecap="round"/>
</svg>