<svg xmlns="http://www.w3.org/2000/svg" width="26" height="25" viewBox="0 0 26 25" fill="none">
  <path d="M16.1247 4.16797C19.3687 4.17746 21.0886 4.28 22.196 5.38739C23.4163 6.60778 23.4163 8.57196 23.4163 12.5003C23.4163 16.4287 23.4163 18.3929 22.196 19.6133C20.9756 20.8337 19.0114 20.8337 15.083 20.8337H10.9163C6.98797 20.8337 5.02378 20.8337 3.8034 19.6133C2.58301 18.3929 2.58301 16.4287 2.58301 12.5003C2.58301 8.57196 2.58301 6.60778 3.8034 5.38739C4.91079 4.28 6.63061 4.17746 9.87467 4.16797" stroke="#474747" stroke-width="1.37755" stroke-linecap="round"/>
  <path d="M13 5.20833L13 3.125" stroke="#474747" stroke-width="1.37755" stroke-linecap="round"/>
  <path d="M8.83301 10.9375H17.1663" stroke="#474747" stroke-width="1.37755" stroke-linecap="round"/>
  <path d="M8.83301 14.583H14.5622" stroke="#474747" stroke-width="1.37755" stroke-linecap="round"/>
</svg>