<svg xmlns="http://www.w3.org/2000/svg" width="19" height="18" viewBox="0 0 19 18" fill="none">
  <path d="M17.0623 8.28369C17.2903 8.60341 17.4043 8.76331 17.4043 8.99994C17.4043 9.23656 17.2903 9.39646 17.0623 9.71619C16.0377 11.1529 13.4212 14.2499 9.9043 14.2499C6.38738 14.2499 3.77087 11.1529 2.74633 9.71619C2.5183 9.39646 2.4043 9.23656 2.4043 8.99994C2.4043 8.76331 2.5183 8.60341 2.74633 8.28369C3.77087 6.84702 6.38738 3.74994 9.9043 3.74994C13.4212 3.74994 16.0377 6.84702 17.0623 8.28369Z" stroke="#A8A8A8" stroke-width="1.125"/>
  <path d="M12.1543 8.99994C12.1543 7.75726 11.147 6.74994 9.9043 6.74994C8.66162 6.74994 7.6543 7.75726 7.6543 8.99994C7.6543 10.2426 8.66162 11.2499 9.9043 11.2499C11.147 11.2499 12.1543 10.2426 12.1543 8.99994Z" stroke="#A8A8A8" stroke-width="1.125"/>
</svg>