<svg width="30" height="30" viewBox="0 0 30 30" fill="none" xmlns="http://www.w3.org/2000/svg">
<circle cx="15" cy="15.0003" r="15" fill="#1D1D1D"/>
<path d="M8.28613 12.5717C8.28613 12.5717 11.4841 9.00024 15.429 9.00024C19.3739 9.00024 22.5719 12.5717 22.5719 12.5717" stroke="white" stroke-width="1.25" stroke-linecap="round"/>
<path d="M22.2461 16.1753C22.4633 16.4798 22.5719 16.6321 22.5719 16.8574C22.5719 17.0828 22.4633 17.2351 22.2461 17.5396C21.2704 18.9079 18.7784 21.8574 15.429 21.8574C12.0795 21.8574 9.58763 18.9079 8.61188 17.5396C8.39471 17.2351 8.28613 17.0828 8.28613 16.8574C8.28613 16.6321 8.39471 16.4798 8.61188 16.1753C9.58763 14.807 12.0795 11.8574 15.429 11.8574C18.7784 11.8574 21.2704 14.807 22.2461 16.1753Z" stroke="white" stroke-width="1.25"/>
<path d="M17.5718 16.8575C17.5718 15.674 16.6125 14.7146 15.429 14.7146C14.2455 14.7146 13.2861 15.674 13.2861 16.8575C13.2861 18.041 14.2455 19.0003 15.429 19.0003C16.6125 19.0003 17.5718 18.041 17.5718 16.8575Z" stroke="white" stroke-width="1.25"/>
</svg>
