<svg width="25" height="25" viewBox="0 0 25 25" fill="none" xmlns="http://www.w3.org/2000/svg">
<path fill-rule="evenodd" clip-rule="evenodd" d="M21.9794 8.33669C21.9204 8.33297 21.8561 8.33299 21.7895 8.33301L21.7729 8.33302H19.1599C17.006 8.33302 15.1631 10.0284 15.1631 12.2393C15.1631 14.4501 17.006 16.1455 19.1599 16.1455H21.7729H21.7895C21.8561 16.1455 21.9204 16.1456 21.9794 16.1419C22.8543 16.0866 23.628 15.402 23.6931 14.4457C23.6974 14.383 23.6973 14.3154 23.6973 14.2528V14.2358V10.2427V10.2257C23.6973 10.1631 23.6974 10.0955 23.6931 10.0328C23.628 9.07656 22.8543 8.39194 21.9794 8.33669ZM18.9282 13.2809C19.4827 13.2809 19.9321 12.8146 19.9321 12.2393C19.9321 11.6639 19.4827 11.1976 18.9282 11.1976C18.3737 11.1976 17.9241 11.6639 17.9241 12.2393C17.9241 12.8146 18.3737 13.2809 18.9282 13.2809Z" fill="#722AE8"/>
<path fill-rule="evenodd" clip-rule="evenodd" d="M21.7892 17.7083C21.9445 17.7043 22.0621 17.8481 22.0199 17.9977C21.8108 18.7398 21.4788 19.3724 20.9463 19.905C20.1668 20.6845 19.1782 21.0304 17.957 21.1947C16.7703 21.3542 15.254 21.3542 13.3397 21.3542H11.1388C9.2245 21.3542 7.70821 21.3542 6.52153 21.1947C5.30026 21.0304 4.31177 20.6845 3.53222 19.905C2.75267 19.1254 2.40672 18.1369 2.24253 16.9156C2.08298 15.729 2.08299 14.2127 2.08301 12.2983V12.1808C2.08299 10.2665 2.08298 8.7502 2.24253 7.56352C2.40672 6.34225 2.75267 5.35376 3.53222 4.57421C4.31177 3.79467 5.30026 3.44871 6.52153 3.28452C7.70821 3.12497 9.22449 3.12498 11.1388 3.125H13.3397C15.254 3.12498 16.7703 3.12497 17.957 3.28452C19.1782 3.44871 20.1668 3.79467 20.9463 4.57421C21.4788 5.10679 21.8107 5.73931 22.0199 6.48144C22.0621 6.63099 21.9445 6.77486 21.7892 6.77083L19.1601 6.77084C16.2053 6.77084 13.6008 9.10511 13.6008 12.2396C13.6008 15.3741 16.2053 17.7083 19.1601 17.7083H21.7892ZM7.29134 16.1458C6.85987 16.1458 6.51009 15.796 6.51009 15.3646V9.11458C6.51009 8.68312 6.85987 8.33333 7.29134 8.33333C7.72281 8.33333 8.07259 8.68312 8.07259 9.11458V15.3646C8.07259 15.796 7.72281 16.1458 7.29134 16.1458Z" fill="#722AE8"/>
</svg>
