<svg xmlns="http://www.w3.org/2000/svg" width="27" height="28" viewBox="0 0 27 28" fill="none">
  <path d="M2.84961 13.9404C2.84961 10.0791 2.84961 8.14839 3.99879 6.85941C4.1826 6.65325 4.38518 6.46258 4.60423 6.28959C5.97377 5.20801 8.0251 5.20801 12.1278 5.20801H15.4024C19.5051 5.20801 21.5565 5.20801 22.9259 6.28959C23.145 6.46258 23.3476 6.65325 23.5314 6.85941C24.6806 8.14839 24.6806 10.0791 24.6806 13.9404C24.6806 17.8018 24.6806 19.7324 23.5314 21.0214C23.3476 21.2276 23.145 21.4182 22.9259 21.5912C21.5565 22.6728 19.5051 22.6728 15.4024 22.6728H12.1278C8.0251 22.6728 5.97377 22.6728 4.60423 21.5912C4.38518 21.4182 4.1826 21.2276 3.99879 21.0214C2.84961 19.7324 2.84961 17.8018 2.84961 13.9404Z" stroke="#A8A8A8" stroke-width="1.85563" stroke-linecap="round" stroke-linejoin="round"/>
  <path d="M11.582 18.3066H13.2194" stroke="#A8A8A8" stroke-width="1.85563" stroke-miterlimit="10" stroke-linecap="round" stroke-linejoin="round"/>
  <path d="M16.4922 18.3066H20.3126" stroke="#A8A8A8" stroke-width="1.85563" stroke-miterlimit="10" stroke-linecap="round" stroke-linejoin="round"/>
  <path d="M2.84961 10.666H24.6806" stroke="#A8A8A8" stroke-width="1.85563" stroke-linejoin="round"/>
</svg>