<svg xmlns="http://www.w3.org/2000/svg" width="19" height="19" viewBox="0 0 19 19" fill="none">
  <path d="M17.1191 11.0684V8.06836C17.1191 5.23993 17.1191 3.82572 16.2404 2.94704C15.3618 2.06836 13.9475 2.06836 11.1191 2.06836H9.61914C6.79071 2.06836 5.3765 2.06836 4.49782 2.94704C3.61914 3.82572 3.61914 5.23993 3.61914 8.06836V11.0684C3.61914 13.8968 3.61914 15.311 4.49782 16.1897C5.3765 17.0684 6.79071 17.0684 9.61914 17.0684H11.1191C13.9475 17.0684 15.3618 17.0684 16.2404 16.1897C17.1191 15.311 17.1191 13.8968 17.1191 11.0684Z" stroke="#A8A8A8" stroke-width="0.877505"/>
  <path d="M4.36914 5.06836H2.11914M4.36914 9.56836H2.11914M4.36914 14.0684H2.11914" stroke="#A8A8A8" stroke-width="0.877505" stroke-linecap="round" stroke-linejoin="round"/>
  <path d="M13.7441 5.81836H10.7441M12.2441 8.81836H10.7441" stroke="#A8A8A8" stroke-width="0.877505" stroke-linecap="round" stroke-linejoin="round"/>
  <path d="M7.36914 17.0684V2.06836" stroke="#A8A8A8" stroke-width="0.877505" stroke-linecap="round" stroke-linejoin="round"/>
</svg>