<svg width="30" height="30" viewBox="0 0 30 30" fill="none" xmlns="http://www.w3.org/2000/svg">
<circle cx="15" cy="15.0002" r="15" fill="#1D1D1D"/>
<path d="M19.3415 12.4366C19.3468 12.4365 19.3522 12.4365 19.3575 12.4365C21.1328 12.4365 22.5718 13.8782 22.5718 15.6567C22.5718 17.3142 21.3218 18.6792 19.7147 18.8572M19.3415 12.4366C19.3521 12.3187 19.3575 12.1993 19.3575 12.0787C19.3575 9.90505 17.5987 8.14294 15.429 8.14294C13.3742 8.14294 11.6878 9.72342 11.515 11.7372M19.3415 12.4366C19.2685 13.2484 18.9494 13.9891 18.4595 14.5833M11.515 11.7372C9.70326 11.9099 8.28613 13.4386 8.28613 15.2989C8.28613 17.0299 9.5131 18.4738 11.1433 18.8053M11.515 11.7372C11.6277 11.7264 11.742 11.7209 11.8576 11.7209C12.6617 11.7209 13.4038 11.9872 14.0008 12.4365" stroke="white" stroke-width="1.25" stroke-linecap="round" stroke-linejoin="round"/>
<path d="M15.4293 15.2858V21M15.4293 15.2858C14.9291 15.2858 13.9946 16.7103 13.6436 17.0715M15.4293 15.2858C15.9294 15.2858 16.8639 16.7103 17.215 17.0715" stroke="white" stroke-width="1.25" stroke-linecap="round" stroke-linejoin="round"/>
</svg>
