<svg xmlns="http://www.w3.org/2000/svg" width="25" height="25" viewBox="0 0 25 25" fill="none">
  <path d="M13.25 3.5C13.25 3.08579 12.9142 2.75 12.5 2.75C12.0858 2.75 11.75 3.08579 11.75 3.5V5.5C11.75 5.91421 12.0858 6.25 12.5 6.25C12.9142 6.25 13.25 5.91421 13.25 5.5V3.5Z" fill="#722AE8"/>
  <path fill-rule="evenodd" clip-rule="evenodd" d="M23.25 12.5565C23.25 14.3943 23.25 15.8499 23.0969 16.9891C22.9392 18.1615 22.6071 19.1105 21.8588 19.8588C21.1104 20.6072 20.1614 20.9393 18.989 21.097C17.8498 21.2501 16.3942 21.2501 14.5565 21.2501H10.4435C8.60577 21.2501 7.15017 21.2501 6.01098 21.097C4.83856 20.9393 3.88961 20.6072 3.14124 19.8588C2.39288 19.1105 2.06076 18.1615 1.90314 16.9891C1.74997 15.8499 1.74999 14.3943 1.75 12.5565V12.2725C1.75002 12.0529 1.75011 11.8388 1.75053 11.6303C1.75132 11.2466 1.75327 10.8814 1.75806 10.534C1.77152 9.55873 1.80741 8.72316 1.90314 8.01116C2.06076 6.83873 2.39288 5.88978 3.14124 5.14142C3.88961 4.39306 4.83856 4.06094 6.01098 3.90331C6.72742 3.80699 7.569 3.77125 8.55206 3.75799C8.7173 3.75576 8.97469 3.75412 9.24859 3.75292C9.8014 3.7505 10.25 4.19873 10.25 4.75155V5.50008C10.25 6.74272 11.2574 7.75008 12.5 7.75008C13.7426 7.75008 14.75 6.74272 14.75 5.50008V4.75028C14.75 4.19796 15.198 3.74935 15.7503 3.75196C17.0391 3.75806 18.1086 3.78494 18.989 3.90331C20.1614 4.06094 21.1104 4.39306 21.8588 5.14142C22.6071 5.88978 22.9392 6.83873 23.0969 8.01116C23.25 9.15036 23.25 10.6059 23.25 12.4437V12.5565ZM8.5 10.2501C8.08579 10.2501 7.75 10.5859 7.75 11.0001C7.75 11.4143 8.08579 11.7501 8.5 11.7501H16.5C16.9142 11.7501 17.25 11.4143 17.25 11.0001C17.25 10.5859 16.9142 10.2501 16.5 10.2501H8.5ZM8.5 13.7501C8.08579 13.7501 7.75 14.0859 7.75 14.5001C7.75 14.9143 8.08579 15.2501 8.5 15.2501H14C14.4142 15.2501 14.75 14.9143 14.75 14.5001C14.75 14.0859 14.4142 13.7501 14 13.7501H8.5Z" fill="#722AE8"/>
</svg>