<svg xmlns="http://www.w3.org/2000/svg" width="20" height="20" viewBox="0 0 20 20" fill="none">
  <path d="M5.83301 17.5V15" stroke="white" stroke-width="1.25" stroke-linecap="round" stroke-linejoin="round"/>
  <path d="M14.167 17.5V12.5" stroke="white" stroke-width="1.25" stroke-linecap="round" stroke-linejoin="round"/>
  <path d="M14.167 5V2.5" stroke="white" stroke-width="1.25" stroke-linecap="round" stroke-linejoin="round"/>
  <path d="M5.83301 7.5V2.5" stroke="white" stroke-width="1.25" stroke-linecap="round" stroke-linejoin="round"/>
  <path d="M5.83301 15C5.05644 15 4.66816 15 4.36187 14.8732C3.95349 14.704 3.62903 14.3795 3.45987 13.9712C3.33301 13.6648 3.33301 13.2766 3.33301 12.5C3.33301 11.7234 3.33301 11.3352 3.45987 11.0288C3.62903 10.6205 3.95349 10.296 4.36187 10.1268C4.66816 10 5.05644 10 5.83301 10C6.60957 10 6.99786 10 7.30415 10.1268C7.71252 10.296 8.03698 10.6205 8.20614 11.0288C8.33301 11.3352 8.33301 11.7234 8.33301 12.5C8.33301 13.2766 8.33301 13.6648 8.20614 13.9712C8.03698 14.3795 7.71252 14.704 7.30415 14.8732C6.99786 15 6.60957 15 5.83301 15Z" stroke="white" stroke-width="1.25"/>
  <path d="M14.167 10C13.3904 10 13.0022 10 12.6958 9.87317C12.2875 9.704 11.963 9.3795 11.7938 8.97117C11.667 8.66483 11.667 8.27657 11.667 7.5C11.667 6.72343 11.667 6.33515 11.7938 6.02886C11.963 5.62048 12.2875 5.29602 12.6958 5.12687C13.0022 5 13.3904 5 14.167 5C14.9436 5 15.3318 5 15.6382 5.12687C16.0465 5.29602 16.371 5.62048 16.5402 6.02886C16.667 6.33515 16.667 6.72343 16.667 7.5C16.667 8.27657 16.667 8.66483 16.5402 8.97117C16.371 9.3795 16.0465 9.704 15.6382 9.87317C15.3318 10 14.9436 10 14.167 10Z" stroke="white" stroke-width="1.25"/>
</svg>