<svg xmlns="http://www.w3.org/2000/svg" width="19" height="19" viewBox="0 0 19 19" fill="none">
  <path d="M2.7793 6.70844C2.85734 5.13365 3.09082 4.1518 3.78928 3.45334C4.48774 2.75489 5.46958 2.5214 7.04438 2.44336M17.0293 6.70844C16.9512 5.13365 16.7177 4.1518 16.0193 3.45334C15.3209 2.75489 14.339 2.5214 12.7642 2.44336M12.7642 16.6934C14.339 16.6153 15.3209 16.3818 16.0193 15.6834C16.7177 14.9849 16.9512 14.003 17.0293 12.4283M7.04437 16.6934C5.46958 16.6153 4.48774 16.3818 3.78928 15.6834C3.09082 14.9849 2.85734 14.003 2.7793 12.4283" stroke="#A8A8A8" stroke-width="0.987194" stroke-linecap="round" stroke-linejoin="round"/>
  <path d="M2.7793 9.56836H17.0293" stroke="#A8A8A8" stroke-width="0.987194" stroke-linecap="round"/>
</svg>