<svg xmlns="http://www.w3.org/2000/svg" width="15" height="15" viewBox="0 0 15 15" fill="none">
  <path d="M13.125 6.98961V5.17518C13.125 4.15018 13.125 3.63768 12.8724 3.30331C12.6199 2.96894 12.0488 2.8066 10.9067 2.48194C10.1264 2.26013 9.4385 1.99289 8.88894 1.74893C8.13962 1.41631 7.765 1.25 7.5 1.25C7.235 1.25 6.86037 1.41631 6.11107 1.74893C5.56149 1.99289 4.87365 2.26013 4.09333 2.48194C2.95121 2.8066 2.38014 2.96894 2.12757 3.30331C1.875 3.63768 1.875 4.15018 1.875 5.17518V6.98961C1.875 10.5053 5.03923 12.6147 6.62125 13.4496C7.00069 13.6499 7.19037 13.75 7.5 13.75C7.80963 13.75 7.99931 13.6499 8.37875 13.4496C9.96075 12.6147 13.125 10.5053 13.125 6.98961Z" stroke="white" stroke-width="0.9375" stroke-linecap="round"/>
  <path d="M7.5 4.375V5.625" stroke="white" stroke-width="0.9375" stroke-linecap="round"/>
</svg>