<svg xmlns="http://www.w3.org/2000/svg" width="25" height="25" viewBox="0 0 25 25" fill="none">
  <path d="M10.417 7.31926C10.9201 4.34679 13.5071 2.08301 16.6227 2.08301C20.099 2.08301 22.917 4.90105 22.917 8.37728C22.917 11.4929 20.6532 14.0799 17.6807 14.583" stroke="#474747" stroke-width="1.37755" stroke-linecap="round" stroke-linejoin="round"/>
  <path d="M8.33398 22.917C11.7858 22.917 14.584 20.1188 14.584 16.667C14.584 13.2152 11.7858 10.417 8.33398 10.417C4.8822 10.417 2.08398 13.2152 2.08398 16.667C2.08398 20.1188 4.8822 22.917 8.33398 22.917Z" stroke="#474747" stroke-width="1.37755" stroke-linecap="round" stroke-linejoin="round"/>
  <path d="M2.08398 9.375C2.08398 5.91965 4.87863 3.125 8.33398 3.125L7.44113 4.91072" stroke="#474747" stroke-width="1.37755" stroke-linecap="round" stroke-linejoin="round"/>
  <path d="M22.917 15.625C22.917 19.0803 20.1223 21.875 16.667 21.875L17.5598 20.0893" stroke="#474747" stroke-width="1.37755" stroke-linecap="round" stroke-linejoin="round"/>
</svg>