<svg width="30" height="30" viewBox="0 0 30 30" fill="none" xmlns="http://www.w3.org/2000/svg">
<circle cx="15" cy="15" r="15" fill="#1D1D1D"/>
<path d="M21.129 15.4842C21.129 15.9296 20.7679 16.2906 20.3225 16.2906C19.8771 16.2906 19.5161 15.9296 19.5161 15.4842C19.5161 15.0388 19.8771 14.6777 20.3225 14.6777C20.7679 14.6777 21.129 15.0388 21.129 15.4842Z" fill="#B8B8B8"/>
<path fill-rule="evenodd" clip-rule="evenodd" d="M13.8254 8.42773H16.3358C17.8178 8.42772 18.9917 8.42771 19.9104 8.55123C20.8559 8.67835 21.6212 8.94619 22.2247 9.5497C22.9702 10.2952 23.2078 11.2936 23.294 12.5891C23.7596 12.7939 24.1111 13.2272 24.1498 13.776C24.1532 13.8245 24.1532 13.8768 24.1532 13.9253C24.1532 13.9297 24.1532 13.9341 24.1532 13.9385V17.0299C24.1532 17.0342 24.1532 17.0386 24.1532 17.0431C24.1532 17.0916 24.1532 17.1439 24.1498 17.1924C24.1111 17.7412 23.7596 18.1744 23.294 18.3793C23.2078 19.6748 22.9702 20.6732 22.2247 21.4187C21.6212 22.0222 20.8559 22.29 19.9104 22.4171C18.9917 22.5407 17.8178 22.5407 16.3358 22.5406H13.8254C12.3433 22.5407 11.1694 22.5407 10.2507 22.4171C9.30522 22.29 8.53994 22.0222 7.93642 21.4187C7.33291 20.8152 7.06507 20.0499 6.93795 19.1044C6.81443 18.1856 6.81444 17.0117 6.81445 15.5297V15.4387C6.81444 13.9566 6.81443 12.7827 6.93795 11.864C7.06507 10.9185 7.3329 10.1532 7.93642 9.54971C8.53994 8.94619 9.30522 8.67835 10.2507 8.55123C11.1694 8.42771 12.3433 8.42772 13.8254 8.42773ZM22.0708 18.5084H20.5086C18.7786 18.5084 17.2983 17.1958 17.2983 15.4842C17.2983 13.7725 18.7786 12.46 20.5086 12.46H22.0708C21.979 11.3782 21.7714 10.8071 21.3694 10.4051C21.0281 10.0638 20.5606 9.85921 19.7493 9.75012C18.9205 9.6387 17.828 9.63741 16.2903 9.63741H13.8709C12.3331 9.63741 11.2407 9.6387 10.4119 9.75012C9.60055 9.85921 9.13309 10.0638 8.79179 10.4051C8.4505 10.7464 8.24592 11.2138 8.13684 12.0252C8.02542 12.854 8.02413 13.9464 8.02413 15.4842C8.02413 17.0219 8.02542 18.1144 8.13684 18.9432C8.24592 19.7545 8.4505 20.222 8.79179 20.5633C9.13309 20.9046 9.60055 21.1092 10.4119 21.2183C11.2407 21.3297 12.3331 21.331 13.8709 21.331H16.2903C17.828 21.331 18.9205 21.3297 19.7493 21.2183C20.5606 21.1092 21.0281 20.9046 21.3694 20.5633C21.7714 20.1613 21.979 19.5902 22.0708 18.5084ZM22.6802 13.6699C22.6638 13.6697 22.6423 13.6697 22.6075 13.6697H20.5086C19.3607 13.6697 18.508 14.5235 18.508 15.4842C18.508 16.4449 19.3607 17.2987 20.5086 17.2987H22.6075C22.6423 17.2987 22.6638 17.2987 22.6802 17.2985C22.6902 17.2984 22.6956 17.2983 22.6981 17.2982L22.6999 17.2981C22.8661 17.288 22.9376 17.1758 22.943 17.1083C22.943 17.1083 22.9432 17.1032 22.9433 17.0959C22.9435 17.0816 22.9435 17.0626 22.9435 17.0299V13.9385C22.9435 13.9058 22.9435 13.8867 22.9433 13.8724C22.9432 13.8651 22.943 13.8601 22.943 13.8601C22.9376 13.7926 22.8661 13.6804 22.6999 13.6703C22.6999 13.6703 22.6959 13.67 22.6802 13.6699ZM11.4516 12.46C11.7856 12.46 12.0564 12.7308 12.0564 13.0648V17.9035C12.0564 18.2376 11.7856 18.5084 11.4516 18.5084C11.1175 18.5084 10.8467 18.2376 10.8467 17.9035V13.0648C10.8467 12.7308 11.1175 12.46 11.4516 12.46Z" fill="#B8B8B8"/>
</svg>
